<svg id="YWq-UHP5y" viewBox="0 0 90 99" height="99" width="90"
    style="width: 410.154px; height: 99px; position: absolute; top: 50%; left: 50%; z-index: 0; cursor: pointer; transform: translate(-50%, -50%) scale(0.538822);">
    <defs id="SvgjsDefs1052"></defs>
    <g id="SvgjsG1053" featurekey="symbolContainer" transform="matrix(1,0,0,1,0,0)" fill="#35d0ba">
        <rect width="99" height="99"></rect>
    </g>
    <g id="SvgjsG1054" featurekey="monogramFeature-0"
        transform="matrix(1.6272857189178467,0,0,1.6272857189178467,15.996876946277395,-13.314771759178964)"
        fill="#111111">
        <path
            d="M3.9 60 c-0.84 0 -1.44 -0.42 -1.44 -1.14 l0 -0.24 c0 -1.68 2.4 -2.4 2.4 -5.16 l0 -29.52 c0 -2.76 -2.4 -3.48 -2.4 -5.16 l0 -0.24 c0 -0.72 0.54 -1.14 1.38 -1.14 l28.2 0 c1.32 0 1.8 0.6 2.04 1.92 l1.44 7.56 c0.18 1.08 -0.48 1.74 -1.5 1.74 l-0.3 0 c-3.36 0 -5.1 -7.02 -9.36 -7.02 l-5.76 0 c-1.44 0 -2.76 0.72 -2.76 2.88 l0 13.44 l6.72 0 c2.76 0 3.6 -4.86 5.34 -4.86 l0.54 0 c0.72 0 1.14 0.54 1.14 1.38 l0 10.8 c0 0.84 -0.42 1.38 -1.14 1.38 l-0.54 0 c-1.74 0 -2.58 -4.5 -5.34 -4.5 l-6.72 0 l0 11.34 c0 2.76 2.7 3.48 2.7 5.16 l0 0.24 c0 0.72 -0.6 1.14 -1.44 1.14 l-13.2 0 z"></path>
    </g>
</svg>